name ./resultDataOpenSim/trcMotMarkerGrf/sub09/grf-05-07.mot
datacolumns 19
datarows 27
range 1.53600000 1.64000000
endheader

                time	     ground_force_vx	     ground_force_vy	     ground_force_vz	     ground_force_px	     ground_force_py	     ground_force_pz	   l_ground_force_vx	   l_ground_force_vy	   l_ground_force_vz	   l_ground_force_px	   l_ground_force_py	   l_ground_force_pz	     ground_torque_x	     ground_torque_y	     ground_torque_z	   l_ground_torque_x	   l_ground_torque_y	   l_ground_torque_z	
          1.53600000	        -41.13028104	        482.85592324	        -22.86444683	          1.00097075	          0.00000000	          0.16772882	          0.00000000	          0.00000000	          0.00000000	          0.00000000	          0.00000000	          0.00000000	          0.00000000	          1.58521038	          0.00000000	          0.00000000	          0.00000000	          0.00000000	
          1.54000000	        -41.48724364	        478.19495641	        -19.74327546	          1.00252168	          0.00000000	          0.16752507	          0.00000000	          0.00000000	          0.00000000	          0.00000000	          0.00000000	          0.00000000	          0.00000000	          1.82787747	          0.00000000	          0.00000000	          0.00000000	          0.00000000	
          1.54400000	        -41.79026897	        473.74539652	        -17.29416522	          1.00396968	          0.00000000	          0.16728619	          0.00000000	          0.00000000	          0.00000000	          0.00000000	          0.00000000	          0.00000000	          0.00000000	          2.03508306	          0.00000000	          0.00000000	          0.00000000	          0.00000000	
          1.54800000	        -41.52700535	        469.51003161	        -15.76065781	          1.00524862	          0.00000000	          0.16703324	          0.00000000	          0.00000000	          0.00000000	          0.00000000	          0.00000000	          0.00000000	          0.00000000	          2.15917947	          0.00000000	          0.00000000	          0.00000000	          0.00000000	
          1.55200000	        -40.36477466	        465.49406867	        -15.21986927	          1.00631534	          0.00000000	          0.16679079	          0.00000000	          0.00000000	          0.00000000	          0.00000000	          0.00000000	          0.00000000	          0.00000000	          2.17264573	          0.00000000	          0.00000000	          0.00000000	          0.00000000	
          1.55600000	        -38.23030634	        461.71221006	        -15.56666724	          1.00715129	          0.00000000	          0.16656984	          0.00000000	          0.00000000	          0.00000000	          0.00000000	          0.00000000	          0.00000000	          0.00000000	          2.07521357	          0.00000000	          0.00000000	          0.00000000	          0.00000000	
          1.56000000	        -35.32529285	        458.18480796	        -16.53790472	          1.00777659	          0.00000000	          0.16637377	          0.00000000	          0.00000000	          0.00000000	          0.00000000	          0.00000000	          0.00000000	          0.00000000	          1.89422117	          0.00000000	          0.00000000	          0.00000000	          0.00000000	
          1.56400000	        -32.06749781	        454.92874522	        -17.76863778	          1.00825409	          0.00000000	          0.16620348	          0.00000000	          0.00000000	          0.00000000	          0.00000000	          0.00000000	          0.00000000	          0.00000000	          1.67795525	          0.00000000	          0.00000000	          0.00000000	          0.00000000	
          1.56800000	        -28.96881489	        451.95884808	        -18.85922167	          1.00866840	          0.00000000	          0.16604671	          0.00000000	          0.00000000	          0.00000000	          0.00000000	          0.00000000	          0.00000000	          0.00000000	          1.48365479	          0.00000000	          0.00000000	          0.00000000	          0.00000000	
          1.57200000	        -26.49168357	        449.29499739	        -19.44649676	          1.00909784	          0.00000000	          0.16587545	          0.00000000	          0.00000000	          0.00000000	          0.00000000	          0.00000000	          0.00000000	          0.00000000	          1.36340584	          0.00000000	          0.00000000	          0.00000000	          0.00000000	
          1.57600000	        -24.93064840	        446.95505166	        -19.27437068	          1.00959281	          0.00000000	          0.16565858	          0.00000000	          0.00000000	          0.00000000	          0.00000000	          0.00000000	          0.00000000	          0.00000000	          1.35173070	          0.00000000	          0.00000000	          0.00000000	          0.00000000	
          1.58000000	        -24.34556495	        444.93342921	        -18.24705797	          1.01016533	          0.00000000	          0.16537879	          0.00000000	          0.00000000	          0.00000000	          0.00000000	          0.00000000	          0.00000000	          0.00000000	          1.45802360	          0.00000000	          0.00000000	          0.00000000	          0.00000000	
          1.58400000	        -24.55070225	        443.19105159	        -16.44600378	          1.01078655	          0.00000000	          0.16504419	          0.00000000	          0.00000000	          0.00000000	          0.00000000	          0.00000000	          0.00000000	          0.00000000	          1.66542929	          0.00000000	          0.00000000	          0.00000000	          0.00000000	
          1.58800000	        -25.16188539	        441.67016921	        -14.10743026	          1.01140728	          0.00000000	          0.16468179	          0.00000000	          0.00000000	          0.00000000	          0.00000000	          0.00000000	          0.00000000	          0.00000000	          1.93592086	          0.00000000	          0.00000000	          0.00000000	          0.00000000	
          1.59200000	        -25.69932705	        440.32302292	        -11.57395421	          1.01197003	          0.00000000	          0.16433055	          0.00000000	          0.00000000	          0.00000000	          0.00000000	          0.00000000	          0.00000000	          0.00000000	          2.21980681	          0.00000000	          0.00000000	          0.00000000	          0.00000000	
          1.59600000	        -25.72050322	        439.13141732	         -9.23279154	          1.01242558	          0.00000000	          0.16402211	          0.00000000	          0.00000000	          0.00000000	          0.00000000	          0.00000000	          0.00000000	          0.00000000	          2.46710919	          0.00000000	          0.00000000	          0.00000000	          0.00000000	
          1.60000000	        -24.94142367	        438.09322692	         -7.44387448	          1.01274720	          0.00000000	          0.16377403	          0.00000000	          0.00000000	          0.00000000	          0.00000000	          0.00000000	          0.00000000	          0.00000000	          2.63826646	          0.00000000	          0.00000000	          0.00000000	          0.00000000	
          1.60400000	        -23.30658582	        437.18832873	         -6.46737414	          1.01293186	          0.00000000	          0.16360285	          0.00000000	          0.00000000	          0.00000000	          0.00000000	          0.00000000	          0.00000000	          0.00000000	          2.71209940	          0.00000000	          0.00000000	          0.00000000	          0.00000000	
          1.60800000	        -20.98860160	        436.37240303	         -6.41486430	          1.01303465	          0.00000000	          0.16351470	          0.00000000	          0.00000000	          0.00000000	          0.00000000	          0.00000000	          0.00000000	          0.00000000	          2.68960300	          0.00000000	          0.00000000	          0.00000000	          0.00000000	
          1.61200000	        -18.32428982	        435.62097976	         -7.23435186	          1.01311740	          0.00000000	          0.16351053	          0.00000000	          0.00000000	          0.00000000	          0.00000000	          0.00000000	          0.00000000	          0.00000000	          2.59287415	          0.00000000	          0.00000000	          0.00000000	          0.00000000	
          1.61600000	        -15.71125518	        434.98371394	         -8.71838997	          1.01323325	          0.00000000	          0.16355728	          0.00000000	          0.00000000	          0.00000000	          0.00000000	          0.00000000	          0.00000000	          0.00000000	          2.45939027	          0.00000000	          0.00000000	          0.00000000	          0.00000000	
          1.62000000	        -13.50002122	        434.58367797	        -10.53465966	          1.01342157	          0.00000000	          0.16361083	          0.00000000	          0.00000000	          0.00000000	          0.00000000	          0.00000000	          0.00000000	          0.00000000	          2.33280821	          0.00000000	          0.00000000	          0.00000000	          0.00000000	
          1.62400000	        -11.90957908	        434.55864636	        -12.28708242	          1.01369036	          0.00000000	          0.16363170	          0.00000000	          0.00000000	          0.00000000	          0.00000000	          0.00000000	          0.00000000	          0.00000000	          2.25239620	          0.00000000	          0.00000000	          0.00000000	          0.00000000	
          1.62800000	        -10.97980466	        435.01098422	        -13.59954257	          1.01403820	          0.00000000	          0.16359185	          0.00000000	          0.00000000	          0.00000000	          0.00000000	          0.00000000	          0.00000000	          0.00000000	          2.24389372	          0.00000000	          0.00000000	          0.00000000	          0.00000000	
          1.63200000	        -10.56858475	        436.00422909	        -14.19493723	          1.01443760	          0.00000000	          0.16348267	          0.00000000	          0.00000000	          0.00000000	          0.00000000	          0.00000000	          0.00000000	          0.00000000	          2.31442723	          0.00000000	          0.00000000	          0.00000000	          0.00000000	
          1.63600000	        -10.39461179	        437.58035592	        -13.94553262	          1.01482853	          0.00000000	          0.16330716	          0.00000000	          0.00000000	          0.00000000	          0.00000000	          0.00000000	          0.00000000	          0.00000000	          2.45281693	          0.00000000	          0.00000000	          0.00000000	          0.00000000	
          1.64000000	        -10.11533318	        439.76723233	        -12.89095251	          1.01514648	          0.00000000	          0.16307695	          0.00000000	          0.00000000	          0.00000000	          0.00000000	          0.00000000	          0.00000000	          0.00000000	          2.63465990	          0.00000000	          0.00000000	          0.00000000	          0.00000000	
